<svg width="40" height="40" viewBox="0 0 40 40" fill="none" xmlns="http://www.w3.org/2000/svg">
<circle cx="20" cy="20" r="19.5" fill="#232323" stroke="#404040"/>
<mask id="mask0_33_300" style="mask-type:alpha" maskUnits="userSpaceOnUse" x="10" y="10" width="20" height="20">
<rect x="10" y="10" width="20" height="20" fill="#D9D9D9"/>
</mask>
<g mask="url(#mask0_33_300)">
<path d="M13.4792 27.5C13.1875 27.5695 12.934 27.4965 12.7188 27.2813C12.5035 27.066 12.4306 26.8125 12.5 26.5208L13.3333 22.5417L17.4583 26.6667L13.4792 27.5ZM17.4583 26.6667L13.3333 22.5417L22.875 13C23.1945 12.6806 23.5903 12.5208 24.0625 12.5208C24.5347 12.5208 24.9306 12.6806 25.25 13L27 14.75C27.3195 15.0695 27.4792 15.4653 27.4792 15.9375C27.4792 16.4097 27.3195 16.8056 27 17.125L17.4583 26.6667ZM24.0625 14.1667L15.4375 22.7917L17.2083 24.5625L25.8333 15.9375L24.0625 14.1667Z" fill="#969696"/>
</g>
</svg>
